<svg xmlns="http://www.w3.org/2000/svg" viewBox="0 0 175.16 149.28">
  <path fill="#95c345" d="M166.82,27.65,140.16,113l-80.67.67-11.17-29c2.15-1.53,29.09,5.7,57.5-9,29-15,33.5-49,33.5-49Z"/>
  <path d="M124.69,130.88h-.47l-.53,0a9.19,9.19,0,1,0,1,0Z"/>
  <path d="M83.31,133.59a9.2,9.2,0,1,0,2.69,6.5,9.11,9.11,0,0,0-2.69-6.5Z"/>
  <path d="M169.34,21.7H34.09L27.78,3.84A5.49,5.49,0,0,0,22.54,0h-17A5.51,5.51,0,0,0,0,5.89,5.67,5.67,0,0,0,5.79,11H18.55L52.79,114.45a7.23,7.23,0,0,0,6.87,5l81.59.28a5.5,5.5,0,0,0,5.23-3.81l28.28-86.61a5.6,5.6,0,0,0,.41-2.26A5.72,5.72,0,0,0,169.34,21.7Zm-32.1,87H62.5l-24.81-76H162.05Z"/>
</svg>
