<svg xmlns="http://www.w3.org/2000/svg" viewBox="0 0 128.39 150.86">
  <path fill="#95c345" d="M73.3,16.73c22.86,0,24,13.73,24,34,0,17.65-12.26,32-27.33,32s-27.33-14.36-27.33-32C42.64,30.46,50.44,16.73,73.3,16.73Z"/>
  <path d="M64.55,86.44C84.63,86.44,101,67.05,101,43.22,101,23.1,96.82,0,64.55,0S28.13,23.1,28.13,43.22C28.13,67.05,44.47,86.44,64.55,86.44Zm0-77c22.57,0,27,12.39,27,33.79,0,18.63-12.11,33.79-27,33.79s-27-15.16-27-33.79C37.56,21.82,42,9.43,64.55,9.43Z"/>
  <path d="M64.59,89.44H63.8C39.72,89.62,0,98,0,128.37v1.24l.61,1.08c1.14,2,12.44,19.39,61.93,20.13v0h3.3v0c49.49-.74,60.79-18.11,61.93-20.13l.61-1.08v-1.24C128.39,98,88.67,89.62,64.59,89.44Zm-.39,52c-38.86-.31-51.77-11.34-54.72-14.58.63-9.38,7.1-16.65,19.27-21.63,14-5.73,30.21-6.31,35.45-6.34s21.46.61,35.45,6.34c12.16,5,18.64,12.26,19.27,21.64C116,130.08,103.05,141.11,64.19,141.41Z"/>
</svg>
