<svg xmlns="http://www.w3.org/2000/svg" viewBox="0 0 156.76 150.21">
  <path fill="#95c345" d="M75.81,3.18l33,1.5,1,140-106,.5-.5-20S82.31,124.18,75.81,3.18Z"/><rect x="39.26" y="31.18" width="57.37" height="9.1" rx="4.55" ry="4.55"/>
  <path d="M43.81,67.06H92.08a4.55,4.55,0,0,0,0-9.1H43.81a4.55,4.55,0,1,0,0,9.1Z"/>
  <rect x="39.26" y="83.84" width="57.37" height="9.1" rx="4.55" ry="4.55"/>
  <path d="M25.79,41.77h0a6.23,6.23,0,0,0,0-12.47h0a6.23,6.23,0,0,0,0,12.47Z"/>
  <path d="M25.79,68.75h0a6.23,6.23,0,0,0,0-12.47h0a6.23,6.23,0,0,0,0,12.47Z"/>
  <path d="M25.79,94.85h0a6.23,6.23,0,0,0,0-12.47h0a6.23,6.23,0,0,0,0,12.47Z"/>
  <rect x="39.26" y="109.53" width="57.37" height="9.1" rx="4.55" ry="4.55"/>
  <path d="M25.79,120.54h0a6.23,6.23,0,0,0,0-12.47h0a6.23,6.23,0,0,0,0,12.47Z"/>
  <path d="M109,0H5.85A5.85,5.85,0,0,0,0,5.9V144a5.85,5.85,0,0,0,5.85,5.85H109a5.85,5.85,0,0,0,5.85-5.85V5.9A5.85,5.85,0,0,0,109,0ZM105.5,140.54H9.34V9.38H105.5Z"/>
  <path d="M149.3,0H130.75a7.46,7.46,0,0,0-7.46,7.46V127.55l12.53,20.31a4.94,4.94,0,0,0,8.4,0l12.54-20.31V7.46A7.46,7.46,0,0,0,149.3,0Zm-1.88,126.81L140,139l-7.4-12.19V9.34h14.8Z"/>
</svg>
